<?xml version="1.0" encoding="UTF-8"?>
<svg width="1113px" height="346px" viewBox="0 0 1113 346" version="1.1" xmlns="http://www.w3.org/2000/svg" xmlns:xlink="http://www.w3.org/1999/xlink">
    <title>Group 9</title>
    <defs>
        <path d="M483.900943,286.219629 L596,286.219629 L588.679245,346 L402,346 L440.481098,32.9498794 C442.021722,20.416644 452.666766,11 465.294335,11 L517.759434,11 L517.759434,11 L483.900943,286.219629 Z" id="path-1"></path>
        <path d="M758.807377,107.966068 L736.916041,323.480552 C735.620464,336.235171 724.886734,345.942595 712.066489,345.954115 L661,346 L661,346 L689.204918,107.966068 L758.807377,107.966068 Z M772,42.7764471 C772,48.4384564 770.786885,53.7561544 768.360656,58.7295409 C765.934426,63.7029275 762.75,68.0642049 758.807377,71.8133733 C754.864754,75.5625416 750.353484,78.5465735 745.273566,80.7654691 C740.193648,82.9843646 735,84.0938124 729.692623,84.0938124 C724.385246,84.0938124 719.305328,82.9843646 714.452869,80.7654691 C709.60041,78.5465735 705.316598,75.5625416 701.601434,71.8133733 C697.88627,68.0642049 694.891393,63.7029275 692.616803,58.7295409 C690.342213,53.7561544 689.204918,48.4384564 689.204918,42.7764471 C689.204918,37.1144378 690.342213,31.758483 692.616803,26.7085828 C694.891393,21.6586826 697.96209,17.2208916 701.828893,13.3952096 C705.695697,9.56952761 710.055328,6.54723886 714.907787,4.32834331 C719.760246,2.10944777 724.840164,1 730.147541,1 C735.606557,1 740.838115,2.07119095 745.842213,4.21357285 C750.846311,6.35595476 755.281762,9.33998669 759.148566,13.1656687 C763.015369,16.9913506 766.123975,21.4291417 768.474385,26.4790419 C770.824795,31.5289421 772,36.9614105 772,42.7764471 Z" id="path-2"></path>
        <path d="M1113,345 L1055.15789,345 C1048.73099,345 1043.56652,343.505491 1039.66447,340.516472 C1035.76243,337.527454 1033.42885,333.580416 1032.66374,328.67536 L1022.3348,268.435141 L989,84.0938124 L908.716374,268.435141 L883.926901,328.67536 C882.243665,332.967284 878.953704,336.761039 874.057018,340.056623 C869.160331,343.352208 863.72807,345 857.760234,345 L799,345 L958.754386,10 L1035.41813,10 L1113,345 Z" id="path-3"></path>
    </defs>
    <g id="Page-1" stroke="none" stroke-width="1" fill="none" fill-rule="evenodd">
        <g id="Group-9" transform="translate(0, 0)">
            <path d="M296.724616,2.25527476 L78.8045311,344.5 L25,344.5 C18.2345118,344.5 12.1095118,341.757744 7.67588386,337.324116 C3.24225591,332.890488 0.5,326.765488 0.5,320 L0.5,231.962449 L296.724616,2.25527476 Z" id="Rectangle" stroke="#979797" fill="#009DD1"></path>
            <path d="M170,0 L298.691322,0 L298.691322,0 L0,231.599092 L0,170 C-1.14980138e-14,76.1115925 76.1115925,1.72470207e-14 170,0 Z" id="Rectangle" fill="#000000"></path>
            <polygon id="Rectangle" fill="#009DD1" points="298.691322 0.0974772957 79.0789175 345 1.79214867e-14 345 0 231.717457"></polygon>
            <path d="M315.625,0.0974772957 C367.948899,97.3829637 379.875796,174.560849 351.405691,231.631132 C322.935586,288.701416 276.148792,326.491039 211.045308,345 L315.625,0.0974772957 Z" id="Rectangle" fill="#000000"></path>
            <path d="M170,0 L298.691322,0 L298.691322,0 L0,231.599092 L-2.84217094e-14,170 C-3.99197232e-14,76.1115925 76.1115925,1.72470207e-14 170,0 Z" id="Rectangle" fill="#000000"></path>
            <g id="Path" fill-rule="nonzero">
                <use fill="#FFFFFF" xlink:href="#path-1"></use>
                <use fill="#000000" xlink:href="#path-1"></use>
            </g>
            <g id="Shape" fill-rule="nonzero">
                <use fill="#FFFFFF" xlink:href="#path-2"></use>
                <use fill="#009DD1" xlink:href="#path-2"></use>
            </g>
            <g id="Shape" fill-rule="nonzero">
                <use fill="#FFFFFF" xlink:href="#path-3"></use>
                <use fill="#000000" xlink:href="#path-3"></use>
            </g>
        </g>
    </g>
</svg>