<?xml version="1.0" standalone="no"?>
<!DOCTYPE svg PUBLIC "-//W3C//DTD SVG 20010904//EN"
 "http://www.w3.org/TR/2001/REC-SVG-20010904/DTD/svg10.dtd">
<svg version="1.0" xmlns="http://www.w3.org/2000/svg"
 width="1014.000000pt" height="1014.000000pt" viewBox="0 0 1014.000000 1014.000000"
 preserveAspectRatio="xMidYMid meet">
<metadata>
Created by potrace 1.14, written by Peter Selinger 2001-2017
</metadata>
<g transform="translate(0.000000,1014.000000) scale(0.100000,-0.100000)"
fill="#000000" stroke="none">
<path d="M1235 10133 c-503 -65 -931 -386 -1125 -842 -18 -41 -33 -81 -35 -90
-2 -9 -12 -41 -21 -71 -9 -30 -24 -100 -34 -155 -17 -95 -18 -288 -18 -3905 0
-3692 0 -3808 19 -3913 51 -290 181 -541 389 -747 196 -195 400 -308 680 -378
l105 -27 3830 -2 c2107 -1 3855 2 3885 7 30 4 75 11 100 15 50 7 69 12 185 50
112 37 228 95 335 166 98 66 250 209 318 299 23 30 46 60 50 65 16 20 90 151
115 205 43 92 86 233 106 347 19 105 19 220 19 3908 0 4072 2 3868 -48 4054
-28 101 -101 274 -145 340 -19 29 -35 55 -35 57 0 15 -110 145 -190 224 -192
189 -412 309 -688 372 l-97 23 -3835 1 c-2109 0 -3848 -1 -3865 -3z"/>
</g>
</svg>
